PathFileType	4	(X/Y/Z)	/home/nbianco/projects/addbio/data/HamnerRunning2013/Processed/subject11//results/MarkerData/run500.trc
DataRate	CameraRate	NumFrames	NumMarkers	Units	OrigDataRate	OrigDataStartFrame	OrigNumFrames
100	100	10	42	m	100	42	169
Frame#	Time	C7			CLAV			LACR			LASI			LCAL			LFAradius			LFAsuperior			LFAulna			LLEL			LMEL			LMT5			LPSI			LTB1			LTB2			LTB3			LTH1			LTH2			LTH3			LTOE			LUA1			LUA2			LUA3			RACR			RASI			RCAL			RFAradius			RFAsuperior			RFAulna			RLEL			RMEL			RMT5			RPSI			RTB1			RTB2			RTB3			RTH1			RTH2			RTH3			RTOE			RUA1			RUA2			RUA3		
		X1	Y1	Z1	X2	Y2	Z2	X3	Y3	Z3	X4	Y4	Z4	X5	Y5	Z5	X6	Y6	Z6	X7	Y7	Z7	X8	Y8	Z8	X9	Y9	Z9	X10	Y10	Z10	X11	Y11	Z11	X12	Y12	Z12	X13	Y13	Z13	X14	Y14	Z14	X15	Y15	Z15	X16	Y16	Z16	X17	Y17	Z17	X18	Y18	Z18	X19	Y19	Z19	X20	Y20	Z20	X21	Y21	Z21	X22	Y22	Z22	X23	Y23	Z23	X24	Y24	Z24	X25	Y25	Z25	X26	Y26	Z26	X27	Y27	Z27	X28	Y28	Z28	X29	Y29	Z29	X30	Y30	Z30	X31	Y31	Z31	X32	Y32	Z32	X33	Y33	Z33	X34	Y34	Z34	X35	Y35	Z35	X36	Y36	Z36	X37	Y37	Z37	X38	Y38	Z38	X39	Y39	Z39	X40	Y40	Z40	X41	Y41	Z41	X42	Y42	Z42

43	0.55	0.687419	1.4819	-0.322857	0.796747	1.39107	-0.278136	0.763083	1.4286	-0.484703	0.735196	0.985668	-0.437733	0.306638	0.133151	-0.324603	0.944496	1.05614	-0.546093	0.80837	1.09971	-0.628232	0.932077	1.00524	-0.594091	0.699275	1.12289	-0.642867	0.675949	1.09693	-0.573071	0.469087	0.0522217	-0.396055	0.56529	1.01517	-0.34908	0.592699	0.321558	-0.34323	0.494143	0.304333	-0.401993	0.487993	0.202552	-0.329324	0.645037	0.798028	-0.47779	0.706146	0.663041	-0.450163	0.641879	0.548292	-0.42869	0.526055	0.0657058	-0.304983	0.726646	1.33946	-0.564906	0.673215	1.25436	-0.539112	0.685648	1.20194	-0.60148	0.736091	1.47526	-0.152913	0.734061	0.965508	-0.162923	0.483978	0.409152	-0.239673	0.696406	1.05838	0.0144227	0.586721	1.17117	0.0262736	0.634927	1.02167	0.0261761	0.514414	1.25061	0.000495681	0.506592	1.22848	-0.0781525	0.503517	0.238642	-0.145056	0.563532	0.9987	-0.250042	0.806972	0.415607	-0.227315	0.743831	0.420606	-0.165317	0.647087	0.359651	-0.221623	0.671952	0.773398	-0.143741	0.808817	0.711668	-0.132973	0.806623	0.590226	-0.165575	0.534752	0.188092	-0.222624	0.658587	1.42478	-0.0713925	0.579571	1.36843	-0.106188	0.583008	1.33059	-0.0379933
44	0.56	0.687592	1.48673	-0.323058	0.796566	1.39683	-0.275773	0.767361	1.43482	-0.482685	0.738758	0.988078	-0.438025	0.263739	0.148065	-0.327597	0.959711	1.07622	-0.534232	0.824298	1.10985	-0.621527	0.952054	1.02384	-0.581188	0.714154	1.12651	-0.639542	0.69052	1.10081	-0.569283	0.419469	0.0534672	-0.396246	0.56829	1.01912	-0.349707	0.552008	0.327291	-0.345688	0.451767	0.309349	-0.405032	0.442797	0.210326	-0.328336	0.638659	0.801543	-0.477076	0.68759	0.664301	-0.448711	0.613189	0.553757	-0.428729	0.475914	0.0648854	-0.304871	0.733829	1.3448	-0.563056	0.681541	1.25888	-0.538852	0.697292	1.20556	-0.599134	0.73304	1.48102	-0.15254	0.735471	0.972666	-0.163811	0.515131	0.378155	-0.241493	0.6788	1.06805	0.0119174	0.570989	1.18251	0.0201697	0.616524	1.03215	0.0217714	0.500549	1.26273	-0.00816058	0.495776	1.24108	-0.0878262	0.560224	0.211353	-0.147451	0.565764	1.00492	-0.249637	0.837907	0.424394	-0.228358	0.773698	0.422545	-0.167335	0.68502	0.349929	-0.223302	0.681002	0.780819	-0.139768	0.820217	0.725676	-0.134192	0.823581	0.604242	-0.165607	0.600141	0.168234	-0.226574	0.652191	1.4332	-0.0738253	0.573472	1.37935	-0.111963	0.573147	1.34063	-0.0436142
45	0.57	0.687983	1.49166	-0.323354	0.796445	1.40299	-0.273299	0.771867	1.44145	-0.480399	0.743845	0.990767	-0.437296	0.224748	0.165347	-0.330802	0.972146	1.09722	-0.521831	0.838254	1.12112	-0.614259	0.969097	1.04341	-0.567684	0.728199	1.13131	-0.636458	0.70293	1.10642	-0.56536	0.372102	0.0556383	-0.396873	0.5729	1.02284	-0.350448	0.513173	0.337228	-0.349547	0.413249	0.316786	-0.409283	0.401537	0.220897	-0.329963	0.634011	0.806084	-0.476983	0.669462	0.667721	-0.448108	0.585689	0.562939	-0.430157	0.427543	0.064005	-0.305181	0.740627	1.351	-0.561061	0.689689	1.26411	-0.538806	0.709022	1.21048	-0.597958	0.73011	1.48688	-0.152105	0.738321	0.981326	-0.165874	0.549928	0.345883	-0.243586	0.662905	1.07867	0.00907525	0.556877	1.19444	0.0136328	0.600211	1.04319	0.0168672	0.48806	1.27498	-0.0170416	0.485305	1.25387	-0.0974646	0.620356	0.186272	-0.150307	0.569118	1.01148	-0.249448	0.866833	0.433384	-0.229547	0.801898	0.424	-0.168929	0.723918	0.340469	-0.225606	0.690849	0.789407	-0.135842	0.831156	0.74005	-0.135299	0.838086	0.617777	-0.165406	0.668666	0.15153	-0.231541	0.646415	1.44174	-0.0762937	0.568419	1.39035	-0.117183	0.56448	1.3506	-0.049182
46	0.58	0.68865	1.49639	-0.323836	0.796392	1.40895	-0.270787	0.776399	1.44801	-0.477983	0.749928	0.993343	-0.435502	0.190613	0.185139	-0.334326	0.981694	1.1183	-0.509169	0.850302	1.13272	-0.606756	0.983116	1.0631	-0.553759	0.741355	1.13686	-0.633974	0.713319	1.11295	-0.562129	0.326772	0.0586885	-0.397374	0.578539	1.0265	-0.35141	0.477322	0.350793	-0.35438	0.379601	0.327059	-0.414609	0.366628	0.234462	-0.335868	0.630232	0.811789	-0.477575	0.6532	0.673269	-0.448477	0.561266	0.575676	-0.432804	0.381245	0.0635612	-0.306069	0.747782	1.35746	-0.559395	0.697617	1.27001	-0.539327	0.720584	1.21628	-0.597852	0.72741	1.49239	-0.151663	0.742031	0.990427	-0.16819	0.588454	0.312966	-0.245546	0.649017	1.08921	0.00589305	0.544234	1.20604	0.00699376	0.586104	1.05401	0.0116161	0.477051	1.28672	-0.0259263	0.476112	1.26628	-0.106813	0.682755	0.164171	-0.153478	0.573584	1.01796	-0.249532	0.893539	0.441862	-0.230919	0.828859	0.424167	-0.17024	0.763259	0.331415	-0.228051	0.700885	0.799437	-0.132624	0.841136	0.754249	-0.135788	0.849845	0.63065	-0.165369	0.734222	0.13799	-0.236872	0.641347	1.44982	-0.0787532	0.564314	1.4008	-0.12199	0.556933	1.36012	-0.0545926
47	0.59	0.689506	1.5007	-0.324421	0.796452	1.41431	-0.268385	0.780761	1.45408	-0.475584	0.756172	0.995407	-0.433166	0.162406	0.208009	-0.338626	0.988266	1.13857	-0.496573	0.86057	1.14391	-0.599437	0.994121	1.08211	-0.539694	0.753506	1.14273	-0.632195	0.72195	1.11964	-0.560137	0.283105	0.0633505	-0.397288	0.584375	1.03048	-0.352606	0.445865	0.366976	-0.359423	0.351447	0.340054	-0.420624	0.338474	0.25044	-0.345211	0.626675	0.818575	-0.478927	0.639668	0.680236	-0.449837	0.540727	0.590646	-0.435794	0.33679	0.064594	-0.307672	0.755534	1.36375	-0.558234	0.705308	1.27653	-0.540729	0.731589	1.2225	-0.598415	0.725036	1.49721	-0.151251	0.745876	0.99874	-0.169873	0.630547	0.27988	-0.247009	0.637403	1.0989	0.00246507	0.533063	1.21662	0.000495262	0.574305	1.06391	0.00628387	0.467572	1.29738	-0.0345725	0.469153	1.27774	-0.115567	0.746111	0.145109	-0.157146	0.578914	1.02411	-0.249859	0.917656	0.449186	-0.232207	0.854932	0.422742	-0.17121	0.802429	0.322715	-0.230047	0.709994	0.810734	-0.130339	0.849304	0.767173	-0.135734	0.858382	0.642477	-0.166144	0.792117	0.127774	-0.242136	0.637046	1.457	-0.0811201	0.561047	1.41019	-0.126564	0.550382	1.36893	-0.0598187
48	0.6	0.690411	1.50454	-0.324943	0.796712	1.41894	-0.266256	0.784789	1.45945	-0.473339	0.761725	0.996805	-0.431008	0.141046	0.234189	-0.343962	0.991924	1.15714	-0.484455	0.869145	1.15423	-0.592717	1.00225	1.09969	-0.525949	0.764472	1.14857	-0.631018	0.729122	1.12592	-0.559521	0.240817	0.0714658	-0.39712	0.589683	1.03503	-0.353963	0.419971	0.38405	-0.363832	0.328752	0.354856	-0.426636	0.315489	0.267418	-0.354876	0.623285	0.825943	-0.48073	0.628813	0.68753	-0.452076	0.524156	0.60568	-0.438246	0.293617	0.0683911	-0.310026	0.763458	1.36966	-0.557481	0.71268	1.28336	-0.542913	0.741584	1.22869	-0.599236	0.723061	1.50116	-0.150827	0.749442	1.00558	-0.170759	0.675807	0.247036	-0.247825	0.62819	1.10729	-0.000920787	0.523539	1.22563	-0.0056566	0.564884	1.07228	0.00114407	0.459697	1.30653	-0.042714	0.464637	1.28765	-0.12342	0.809574	0.128833	-0.161451	0.584445	1.03	-0.250315	0.938677	0.454799	-0.23297	0.880017	0.419757	-0.171598	0.840778	0.314156	-0.231117	0.716793	0.822143	-0.129406	0.854723	0.777583	-0.135829	0.863259	0.652422	-0.168028	0.84562	0.121213	-0.247184	0.63354	1.46298	-0.0832559	0.558561	1.4182	-0.130907	0.544811	1.37675	-0.0648417
49	0.61	0.691289	1.508	-0.325236	0.797267	1.42294	-0.264483	0.788304	1.46409	-0.47136	0.765998	0.997777	-0.42952	0.12628	0.262963	-0.350024	0.992954	1.17319	-0.473242	0.876049	1.16345	-0.586829	1.00776	1.1151	-0.513044	0.774032	1.1541	-0.630276	0.735053	1.13143	-0.560056	0.199466	0.0850811	-0.398025	0.594036	1.04001	-0.355351	0.399867	0.399772	-0.366916	0.310761	0.369956	-0.431763	0.295394	0.283842	-0.361896	0.620306	0.833072	-0.482167	0.620231	0.694247	-0.454804	0.511596	0.618557	-0.439771	0.250929	0.0760878	-0.312825	0.770726	1.37514	-0.55692	0.719442	1.28988	-0.545387	0.750159	1.23446	-0.600086	0.721533	1.50422	-0.150287	0.752647	1.01084	-0.171321	0.723563	0.214968	-0.248075	0.62137	1.11409	-0.00388447	0.515918	1.23266	-0.0112294	0.557887	1.07871	-0.0034836	0.453563	1.31375	-0.0500973	0.461982	1.29544	-0.130172	0.872729	0.115804	-0.166009	0.589239	1.03586	-0.250786	0.956037	0.458159	-0.232895	0.903351	0.415101	-0.171266	0.877568	0.305544	-0.231297	0.720412	0.831972	-0.130159	0.85687	0.784753	-0.136818	0.864531	0.65947	-0.170485	0.903883	0.118864	-0.251938	0.63084	1.46762	-0.0849836	0.556862	1.42458	-0.134797	0.540367	1.38314	-0.0695497
50	0.62	0.692148	1.51112	-0.325166	0.798165	1.42644	-0.263054	0.791107	1.4681	-0.469723	0.768796	0.998836	-0.42877	0.115885	0.292898	-0.356148	0.991825	1.18602	-0.463217	0.881294	1.17134	-0.581768	1.0109	1.12769	-0.501337	0.781964	1.15908	-0.6298	0.739801	1.13607	-0.561312	0.158812	0.105082	-0.400533	0.597256	1.04501	-0.356586	0.384796	0.41228	-0.368434	0.29649	0.384032	-0.435307	0.276584	0.299009	-0.365579	0.617854	0.839186	-0.482387	0.613933	0.6998	-0.457217	0.503324	0.627743	-0.440348	0.208242	0.0885419	-0.315387	0.776499	1.38009	-0.556356	0.725072	1.29541	-0.54757	0.757048	1.23956	-0.60089	0.720509	1.50647	-0.149538	0.755467	1.01464	-0.172085	0.772719	0.184568	-0.247969	0.616905	1.119	-0.00611134	0.510464	1.23745	-0.0159645	0.553385	1.08305	-0.00724624	0.449338	1.31868	-0.0565327	0.460515	1.30066	-0.135757	0.934844	0.10758	-0.170045	0.592616	1.04169	-0.251258	0.96922	0.458767	-0.232097	0.923765	0.40847	-0.170371	0.911933	0.296879	-0.231353	0.721161	0.839055	-0.132209	0.856185	0.78879	-0.13877	0.862966	0.6629	-0.172266	0.97088	0.121494	-0.256217	0.628972	1.47084	-0.0861376	0.555974	1.42914	-0.13792	0.537273	1.38757	-0.073695
51	0.63	0.693046	1.51378	-0.324667	0.799371	1.42941	-0.261921	0.793092	1.47157	-0.46846	0.770254	1.00047	-0.42857	0.10646	0.322879	-0.361823	0.989089	1.19512	-0.454428	0.884929	1.17753	-0.577401	1.01188	1.13687	-0.490939	0.788051	1.16337	-0.629402	0.743261	1.13992	-0.562843	0.11983	0.130702	-0.403936	0.599311	1.04968	-0.357465	0.37378	0.420972	-0.368784	0.285486	0.396694	-0.437137	0.258729	0.313516	-0.367314	0.615916	0.843805	-0.481172	0.610515	0.703608	-0.458252	0.4997	0.632609	-0.439993	0.16642	0.106404	-0.317042	0.780287	1.38432	-0.555703	0.729054	1.29964	-0.549103	0.762157	1.24385	-0.601589	0.720089	1.50798	-0.148571	0.757769	1.01704	-0.173207	0.821379	0.15718	-0.24767	0.614797	1.12186	-0.00744268	0.507404	1.23988	-0.0196271	0.551459	1.08529	-0.00990472	0.447155	1.321	-0.0618697	0.460059	1.30315	-0.14016	0.993959	0.105558	-0.173129	0.594629	1.04717	-0.251826	0.977936	0.45643	-0.231222	0.940355	0.399971	-0.169282	0.942787	0.288464	-0.232291	0.720396	0.843174	-0.134479	0.854031	0.790211	-0.140926	0.859494	0.662494	-0.172266	1.03863	0.12942	-0.259881	0.627995	1.47266	-0.0866243	0.555886	1.43175	-0.140018	0.535707	1.38971	-0.0769662
52	0.64	0.694066	1.51577	-0.323774	0.800795	1.43169	-0.261044	0.794347	1.47441	-0.467531	0.770666	1.00283	-0.428803	0.0957924	0.352982	-0.36696	0.985279	1.20025	-0.446785	0.887021	1.18161	-0.573614	1.01082	1.14221	-0.481849	0.79209	1.16678	-0.628894	0.745197	1.14309	-0.564303	0.0849346	0.160331	-0.407133	0.600315	1.0539	-0.357922	0.366406	0.426558	-0.368723	0.278147	0.408459	-0.437686	0.242649	0.328695	-0.368735	0.614706	0.846637	-0.479047	0.610645	0.704973	-0.457107	0.50088	0.633193	-0.438771	0.12802	0.130053	-0.317678	0.782171	1.38761	-0.554972	0.73122	1.3027	-0.549931	0.765507	1.24724	-0.602071	0.720395	1.50876	-0.147467	0.759397	1.01817	-0.174558	0.866526	0.134319	-0.247171	0.615073	1.12263	-0.0078773	0.506886	1.24001	-0.0220519	0.552121	1.08551	-0.0114471	0.447054	1.32069	-0.0658629	0.460859	1.30299	-0.143293	1.04658	0.109189	-0.175538	0.595897	1.05167	-0.252589	0.982351	0.451588	-0.231144	0.952976	0.390725	-0.168343	0.968764	0.280895	-0.234426	0.719451	0.844366	-0.135937	0.851717	0.789063	-0.142322	0.854327	0.658372	-0.170478	1.09381	0.141388	-0.263054	0.627991	1.47317	-0.0864519	0.556537	1.43236	-0.140973	0.535715	1.38958	-0.0791233
